<?xml version="1.0" encoding="UTF-8"?>
<svg id="Layer_2" data-name="Layer 2" xmlns="http://www.w3.org/2000/svg" viewBox="0 0 72.45 29.98">
  <defs>
    <style>
      .cls-1 {
        fill: #666;
      }

      .cls-1, .cls-2, .cls-3 {
        stroke-width: 0px;
      }

      .cls-2 {
        fill: none;
      }

      .cls-3 {
        fill: #333;
      }
    </style>
  </defs>
  <g id="Layer_1-2" data-name="Layer 1">
    <path class="cls-1" d="m0,29.42h1.54c-.25.01-.51.02-.77.02s-.52-.01-.77-.02Z"/>
    <path class="cls-1" d="m34.05,14.98c-8.29,0-15,6.72-15,15,0-8.28-6.72-15-15-15,8.27,0,14.99-6.7,15-14.98.01,8.28,6.72,14.98,15,14.98Z"/>
    <path class="cls-2" d="m58.05,14.99c-4.97,0-9,4.03-9,9,0-4.97-4.03-9-9-9,4.97,0,8.99-4.02,9-8.99.01,4.97,4.03,8.99,9,8.99Z"/>
    <path class="cls-3" d="m49.05,23.99c0-4.97-4.03-9-9-9,4.97,0,8.99-4.02,9-8.99.01,4.97,4.03,8.99,9,8.99-4.97,0-9,4.03-9,9Z"/>
    <path class="cls-2" d="m72.45,14.99c-2.32,0-4.2,1.88-4.2,4.2,0-2.32-1.88-4.2-4.2-4.2,2.32,0,4.2-1.88,4.2-4.2,0,2.32,1.88,4.2,4.2,4.2Z"/>
    <path class="cls-3" d="m72.45,14.99c-2.32,0-4.2,1.88-4.2,4.2,0-2.32-1.88-4.2-4.2-4.2,2.32,0,4.2-1.88,4.2-4.2,0,2.32,1.88,4.2,4.2,4.2Z"/>
  </g>
</svg>