<?xml version="1.0" encoding="UTF-8"?>
<svg id="Layer_2" data-name="Layer 2" xmlns="http://www.w3.org/2000/svg" viewBox="0 0 367.53 200">
  <defs>
    <style>
      .cls-1 {
        fill: #3f3d3d;
        fill-rule: evenodd;
        stroke-width: 0px;
      }
    </style>
  </defs>
  <g id="Layer_1-2" data-name="Layer 1">
    <g>
      <path class="cls-1" d="m89.96,3.03c.27-.39.66-.25.42-1.92-.91-2.74.25.51.14.05-.13.81-.63.41-.93.37.09.36.22.95.38,1.5Z"/>
      <path class="cls-1" d="m32.26,170.61c-2.1-3.49-3.81-7.33-5.5-10.76-.89,1.38-3.46,16.48-7,40.15h7.66c2.32-17.38,4.05-28.15,4.83-29.39Z"/>
      <path class="cls-1" d="m25.7,160.59c-1.7-3.24-3.28-6.33-4.87-8.67-.87,1.26-3.97,19.76-8.23,48.08h6.92c3.1-23.25,5.35-38.08,6.18-39.41Z"/>
      <path class="cls-1" d="m20.07,150.97c-1.43-2.04-2.8-3.98-4.15-5.82-1.6,9.24-3.22,18.36-4.77,27.42-1.58,9.2-3.14,18.36-4.66,27.4l.1.02h6.23c2.32-16.1,4.78-32.5,7.24-49.03h0Z"/>
      <path class="cls-1" d="m15.36,144.2c-1.2-1.91-2.34-3.6-3.42-5.2-2.06,10.14-4.11,20.17-6.09,30.01C3.85,178.95,1.89,188.78,0,198.41v.4c1.79.34,3.64.67,5.53.98,1.54-9.12,3.18-18.38,4.83-27.73,1.62-9.19,3.34-18.46,5-27.86Z"/>
      <path class="cls-1" d="m11.4,138.29c-1.02-1.53-1.83-3.07-2.54-4.71-2.5,10.91-5.04,21.72-7.38,32.36L0,172.63v21.56c1.67-8.42,3.41-16.95,5.16-25.58,2.02-9.96,4.12-20.1,6.23-30.32h0Z"/>
      <path class="cls-1" d="m8.33,132.97c-.87-1.37-1.65-2.67-2.33-4.11C3.99,137.03,1.98,145.13,0,153.16v16.18l.85-3.76c2.41-10.67,4.92-21.59,7.49-32.61h0Z"/>
      <path class="cls-1" d="m5.62,128.26c-.69-1.13-1.16-2.46-1.62-3.79-1.35,5.04-2.68,10.05-3.99,15.03v11.32c1.86-7.44,3.75-14.97,5.62-22.57h0Z"/>
      <path class="cls-1" d="m3.49,124.12c-.46-1.15-.88-2.33-1.18-3.47L0,128.87v8.37c1.15-4.35,2.32-8.72,3.49-13.12Z"/>
      <path class="cls-1" d="m2.12,119.74c-.37-1.11-.67-2.17-.93-3.12L0,120.7v6.56l2.12-7.52Z"/>
      <path class="cls-1" d="m1.11,116.03c-.21-1.01-.31-2.02-.45-3L0,115.25v4.56l1.11-3.78Z"/>
      <path class="cls-1" d="m.61,112.66c-.09-.96-.03-2.04.07-3.07L0,111.79v2.9l.61-2.02Z"/>
      <path class="cls-1" d="m.72,108.89c0-.82.18-1.77.35-2.77L0,109.55v1.65l.72-2.31Z"/>
      <path class="cls-1" d="m1.09,105.86c.16-.86.43-1.68.74-2.62L0,109.13v.2l1.09-3.47h0Z"/>
      <path class="cls-1" d="m2.01,102.68c.38-.82.8-1.71,1.09-2.4-1.03,3.34-2.07,6.68-3.1,10v-1.13c.68-2.15,1.35-4.31,2.01-6.47Z"/>
      <path class="cls-1" d="m3.42,99.75c.44-.77,1.03-1.65,1.62-2.47-1.68,5.51-3.37,11.02-5.05,16.51v-2.95c1.14-3.7,2.29-7.4,3.42-11.09h0Z"/>
      <path class="cls-1" d="m91.23,200c-4.07-3.96-7.94-7.64-11.62-11.4-2.26,3.71-4.62,7.55-6.98,11.4h18.6Z"/>
      <path class="cls-1" d="m77.52,186.71c-4.2-4.42-8.11-8.08-11.78-11.46-4.15,5.71-7.99,11.26-12.05,17.41,1.81,2.22,3.66,4.71,5.6,7.35h9.91c2.79-4.56,5.56-8.97,8.31-13.3Z"/>
      <path class="cls-1" d="m64.02,173.43c-3.64-3.25-6.84-6.33-9.95-9.3-3.64,4.87-7.37,10.07-11,15.19,2.78,3.55,5.84,7.18,8.99,11.19,4.01-5.79,7.84-11.41,11.96-17.08Z"/>
      <path class="cls-1" d="m52.57,162.77c-2.87-2.51-5.62-5.06-8.19-7.43-3.22,4.27-6.57,8.41-9.95,12.83,2.36,2.91,4.76,5.98,7.33,9.44,3.61-4.98,7.26-10.11,10.82-14.85h0Z"/>
      <path class="cls-1" d="m35.44,146.63c-1.97-1.96-3.92-3.7-5.79-5.38-2.66,3.15-5.57,6.61-8.22,9.96,1.5,2.02,3.25,4.18,4.99,6.64,3.02-3.95,5.97-7.4,9.02-11.21Z"/>
      <path class="cls-1" d="m28.56,140.66c-1.68-1.64-3.37-3.13-4.85-4.79-2.38,2.81-4.87,5.7-7.19,8.51,1.26,1.9,2.67,3.79,4.15,5.82,2.57-3.15,5.32-6.44,7.9-9.53Z"/>
      <path class="cls-1" d="m22.64,134.91c-1.36-1.51-2.67-2.88-3.92-4.25-2.17,2.47-4.42,5.09-6.48,7.53,1,1.56,2.18,3.15,3.41,4.89,2.32-2.78,4.77-5.56,6.99-8.18h0Z"/>
      <path class="cls-1" d="m17.93,129.91c-1.19-1.17-2.25-2.39-3.38-3.51-1.88,2.12-3.87,4.29-5.76,6.41.79,1.53,1.72,3.03,2.58,4.64,2.19-2.46,4.47-5.06,6.56-7.54Z"/>
      <path class="cls-1" d="m14.11,125.8c-1-1.07-1.9-2.32-2.68-3.43-1.75,1.89-3.4,3.75-5.28,5.77.77,1.36,1.55,2.64,2.37,4.04,1.84-2.06,3.74-4.19,5.59-6.37h0Z"/>
      <path class="cls-1" d="m10.92,121.5c-.85-.99-1.58-1.93-2.34-2.89-1.63,1.76-3.23,3.58-4.64,5.12.47,1.22,1.1,2.37,1.62,3.68,1.75-1.97,3.56-4,5.35-5.91h0Z"/>
      <path class="cls-1" d="m8.28,118.3c-.67-.96-1.22-2.01-1.81-2.85-1.29,1.35-2.6,2.84-3.88,4.28.38,1.12.72,2.3,1.18,3.46,1.49-1.64,2.97-3.28,4.51-4.88Z"/>
      <path class="cls-1" d="m6.22,114.88c-.58-.81-.93-1.74-1.28-2.61-1.12,1.17-2.29,2.4-3.39,3.6.21,1.03.55,2.04.76,3.25,1.27-1.38,2.66-2.92,3.91-4.24h0Z"/>
      <path class="cls-1" d="m4.69,111.89c-.26-.9-.57-1.66-.83-2.51-1,1.04-1.88,2.06-2.93,3.16.14.93.27,1.94.49,2.91,1.14-1.25,2.23-2.44,3.27-3.55h0Z"/>
      <path class="cls-1" d="m3.73,108.77c-.15-.83-.33-1.57-.36-2.45-.91.99-1.71,1.85-2.47,2.66-.1,1.04-.07,1.95-.02,2.97.89-.97,1.93-2.14,2.85-3.17h0Z"/>
      <path class="cls-1" d="m17.18,85.87c1.15-.62,2.24-1.2,3.42-1.68,0,.17.03.27.14.26-1.26.59-2.6,1.37-3.64,1.93,0-.23,0-.3.08-.52Z"/>
      <path class="cls-1" d="m3.23,103.33c.16-.79.27-1.55.45-2.22-.47.46-1.09,1.14-1.6,1.71-.27.9-.55,1.77-.82,2.68.75-.8,1.31-1.43,1.97-2.18h0Z"/>
      <path class="cls-1" d="m3.9,100.5c.26-.73.55-1.48.84-2.2-.46.54-.82,1-1.28,1.52-.49.86-.86,1.68-1.24,2.58.59-.7,1.06-1.24,1.68-1.9h0Z"/>
      <path class="cls-1" d="m9.41,91.83c.67-.7,1.38-1.35,2.12-1.93-.19.26-.38.54-.53.76-.82.73-1.6,1.4-2.34,2.1.26-.29.42-.51.76-.93Z"/>
      <path class="cls-1" d="m133.11,193.46c-7.12-4.79-13.28-9.33-19.71-13.5-3.83,6.51-7.82,12.94-11.85,20.05h28.05c1.16-2.21,2.32-4.39,3.5-6.55Z"/>
      <path class="cls-1" d="m110.52,178.11c-5.66-3.99-10.95-7.8-15.84-11.3-4.11,6.11-8.17,12.2-12.22,18.67,4.75,4.4,9.62,9.3,15.18,14.05,4.26-7.49,8.69-14.48,12.89-21.42Z"/>
      <path class="cls-1" d="m92.34,165.17c-4.69-2.71-8.84-5.71-12.88-8.5-3.72,4.99-7.57,10.21-11.29,15.67,3.79,3.55,7.67,7.17,12.02,11.32,4.15-6.51,8.03-12.64,12.15-18.49Z"/>
      <path class="cls-1" d="m77.62,155.19c-3.89-2.5-7.43-5.04-10.85-7.17-3.42,4.27-7.05,9.11-10.53,14.04,3.18,2.79,6.57,5.52,10.22,8.64,3.58-5.21,7.4-10.39,11.15-15.51Z"/>
      <path class="cls-1" d="m65.14,146.98c-3.25-1.93-6.19-3.98-9.11-5.66-3.24,3.81-6.35,7.77-9.66,12.03,2.6,2.27,5.47,4.58,8.34,7.15,3.44-4.51,7-9.28,10.42-13.52Z"/>
      <path class="cls-1" d="m26.38,82.02c-.76-.08-1.44-.16-2.05-.28-1.25,1.23-2.4,2.38-3.63,3.55.61.08,1.19.28,1.84.44,1.26-1.19,2.48-2.43,3.84-3.71Z"/>
      <path class="cls-1" d="m45.84,134.45c-2.3-1.38-4.39-2.83-6.53-4.17-2.65,3.15-5.39,6.32-8.07,9.54,1.91,1.54,3.89,3.24,6.03,4.95,2.82-3.47,5.66-6.87,8.57-10.33Z"/>
      <path class="cls-1" d="m38.12,129.85c-1.91-1.34-3.83-2.54-5.67-3.78-2.28,2.63-4.66,5.37-6.95,8.15,1.56,1.55,3.21,3.02,4.93,4.62,2.53-2.92,5.1-5.96,7.68-8.99Z"/>
      <path class="cls-1" d="m31.31,125.34c-1.72-1.04-3.1-2.26-4.63-3.26-2.17,2.42-4.36,4.82-6.42,7.21,1.25,1.31,2.64,2.59,4.13,4.02,2.37-2.88,4.68-5.48,6.92-7.97h0Z"/>
      <path class="cls-1" d="m25.82,121.41c-1.43-1-2.73-2.02-4.1-2.81-1.9,2.06-3.89,4.19-5.91,6.6,1.09,1.13,2.23,2.24,3.51,3.53,2.1-2.37,4.33-4.95,6.5-7.32Z"/>
      <path class="cls-1" d="m21.23,118.18c-1.2-.95-2.35-1.75-3.33-2.67-1.74,1.88-3.53,3.83-5.26,5.66.9,1.07,1.81,2.24,2.89,3.4,1.89-2.21,3.8-4.3,5.7-6.39h0Z"/>
      <path class="cls-1" d="m17.19,114.87c-1.05-.69-1.9-1.6-2.75-2.39-1.66,1.72-3.33,3.54-4.98,5.39.88.8,1.57,1.87,2.38,2.84,1.73-1.92,3.61-3.95,5.34-5.85h0Z"/>
      <path class="cls-1" d="m13.98,112.24c-.92-.67-1.52-1.56-2.27-2.32-1.42,1.47-2.89,3.05-4.25,4.54.67.84,1.26,1.77,1.94,2.74,1.52-1.66,3.04-3.32,4.58-4.96Z"/>
      <path class="cls-1" d="m7.55,104.86c-.31-.73-.58-1.38-.81-2.05-.97,1.03-1.83,1.94-2.74,2.9.15.78.37,1.5.44,2.41,1.1-1.14,2.09-2.21,3.11-3.27h0Z"/>
      <path class="cls-1" d="m6.49,102.58c-.08-.78-.31-1.32-.35-1.97-.74.77-1.51,1.6-2.26,2.4-.04.74.03,1.52.11,2.26.83-.9,1.65-1.82,2.5-2.7Z"/>
      <path class="cls-1" d="m6.25,98.04c.06-.49.24-1.2.37-1.74-.5.55-1.04,1.17-1.5,1.68-.37.76-.62,1.48-.84,2.21.66-.67,1.28-1.4,1.97-2.15h0Z"/>
      <path class="cls-1" d="m7.5,94.37c.27-.47.7-1.18,1.27-1.88-.3.4-.68.83-.84,1.13-.68.82-1.18,1.47-1.73,2.21.38-.46.88-.99,1.3-1.46h0Z"/>
      <path class="cls-1" d="m11.36,89.49c.52-.57,1.07-1.08,1.59-1.54-.33.43-.63.84-.96,1.19-.63.58-1.26,1.21-1.82,1.72.45-.5.78-.88,1.2-1.37h0Z"/>
      <path class="cls-1" d="m10,92.4c.09-.44.29-.91.37-1.35-.53.62-1.09,1.24-1.62,1.8-.2.51-.47,1.07-.68,1.63.61-.64,1.28-1.33,1.92-2.08Z"/>
      <path class="cls-1" d="m250.76,126.11c-11.6-2.44-22.26-4.85-32.31-7.14-3.87,6.24-7.82,12.2-11.52,18.6,9.74,2.71,20.49,6.2,32.39,9.76,3.87-7.36,7.62-14.33,11.44-21.22h0Z"/>
      <path class="cls-1" d="m183.84,119.07c-8.1-1.79-15.23-3.57-22.32-4.9-3.48,4.71-7.27,9.59-11.04,14.7,6.92,2.1,14.18,4.36,21.99,6.86,3.64-5.61,7.6-11.37,11.37-16.66h0Z"/>
      <path class="cls-1" d="m174.31,82.41c-6.45-.26-12.49-.65-18.31-.96-3.28,3.58-6.48,7.07-9.57,10.69,5.65.51,11.65,1.16,18.03,2.1,3.18-4.09,6.36-8.04,9.85-11.83Z"/>
      <path class="cls-1" d="m208.59,200c-8.27-4.39-16.01-8.53-23.3-12.53-2.08,4.09-4.17,8.27-6.23,12.53h29.53Z"/>
      <path class="cls-1" d="m180.34,184.9c-9.49-5.05-17.86-9.92-26.05-14.27-4.29,7.43-8.69,15.42-13.07,23.39,2.68,1.98,5.41,3.97,8.2,5.98h23.54c2.49-5.16,4.94-10.18,7.37-15.1Z"/>
      <path class="cls-1" d="m150.51,168.67c-7.41-3.64-14.25-7.01-20.54-10.36-4.05,6.15-8.36,12.75-12.26,19.55,6.12,4.24,12.71,8.59,19.95,13.28,4.18-7.85,8.55-15.15,12.85-22.47Z"/>
      <path class="cls-1" d="m126.53,157.38c-6.12-3.13-11.7-5.87-16.99-8.48-3.65,5.18-7.49,10.54-11.36,16,5.08,3.46,10.64,7.27,16.5,11.28,4.02-6.77,7.89-12.75,11.85-18.8h0Z"/>
      <path class="cls-1" d="m106.28,146.99c-4.89-2.25-9.5-4.45-13.88-6.64-3.49,4.47-6.99,9.19-10.5,14.03,4.14,2.87,8.47,5.6,13.2,8.34,3.66-5.18,7.45-10.49,11.18-15.73h0Z"/>
      <path class="cls-1" d="m89.87,139.07c-3.97-2.24-7.78-3.9-11.55-5.54-3.28,4.18-6.65,8.45-10.12,12.76,3.57,2,7.3,4.33,11.06,6.91,3.48-4.78,7.12-9.56,10.61-14.13Z"/>
      <path class="cls-1" d="m76.67,133.07c-3.35-1.62-6.66-3.15-9.89-4.5-2.85,3.6-5.87,7.19-8.85,10.78,2.93,1.81,6.02,3.76,9.17,5.85,3.23-4.11,6.5-8.22,9.57-12.13h0Z"/>
      <path class="cls-1" d="m55.37,123.19c-2.66-.97-4.99-2.05-7.3-3.12-2.49,2.8-5.07,5.74-7.45,8.51,2.1,1.35,4.14,2.81,6.64,4.09,2.63-3.16,5.34-6.35,8.11-9.49h0Z"/>
      <path class="cls-1" d="m46.84,119.58c-2.24-1.06-4.27-2.12-6.26-2.9-2.31,2.51-4.46,4.96-6.85,7.67,1.83,1.19,3.7,2.33,5.65,3.65,2.54-2.85,4.94-5.66,7.47-8.42Z"/>
      <path class="cls-1" d="m39.59,116.28c-1.82-.85-3.47-1.74-5.18-2.49-2.17,2.33-4.33,4.61-6.27,6.91,1.41,1.04,3.07,2.04,4.71,3.11,2.32-2.57,4.55-5.06,6.74-7.54h0Z"/>
      <path class="cls-1" d="m33.16,113.47c-1.66-.75-3.15-1.45-4.59-2.25-1.72,1.86-3.77,4.05-5.52,6.05,1.25.9,2.67,1.8,4.1,2.82,1.94-2.25,4.02-4.47,6.01-6.62Z"/>
      <path class="cls-1" d="m27.77,110.82c-1.38-.62-2.77-1.22-3.98-1.84-1.69,1.79-3.31,3.57-4.99,5.32,1.06.8,2.29,1.55,3.45,2.54,1.83-2.07,3.61-4.04,5.52-6.01h0Z"/>
      <path class="cls-1" d="m23.44,108.63c-1.21-.57-2.25-1.22-3.41-1.74-1.46,1.5-3.01,3.15-4.57,4.76.96.72,1.89,1.54,2.95,2.37,1.64-1.8,3.34-3.57,5.03-5.4Z"/>
      <path class="cls-1" d="m19.53,106.39c-.92-.68-1.83-1.32-2.74-1.8-1.5,1.57-2.85,3-4.22,4.46.71.77,1.51,1.48,2.35,2.24,1.56-1.67,3.11-3.27,4.61-4.9h0Z"/>
      <path class="cls-1" d="m16.26,104.25c-.83-.45-1.61-.92-2.28-1.51-1.27,1.34-2.43,2.56-3.79,4.01.59.65,1.18,1.29,1.85,1.95,1.36-1.42,2.72-2.81,4.22-4.45Z"/>
      <path class="cls-1" d="m142.8,99.31c-5.4-.74-10.55-1.38-15.54-2.16-3.12,3.74-6.25,7.34-9.56,11.09,4.76,1,9.83,1.95,15.22,3.28,3.32-4.18,6.64-8.2,9.88-12.21h0Z"/>
      <path class="cls-1" d="m42.59,80.08c-1.47.01-2.86.01-4.18.04-1.54,1.55-3.13,3.05-4.62,4.55,1.29-.02,2.4.19,3.81.24,1.62-1.62,3.28-3.24,4.99-4.84h0Z"/>
      <path class="cls-1" d="m42.35,75.27c-1.33.16-2.6.28-3.82.38-1.5,1.41-2.93,2.76-4.33,4.08,1.13,0,2.29,0,3.49-.05,1.5-1.43,3.1-2.94,4.66-4.41Z"/>
      <path class="cls-1" d="m298.27,200c-3.94-1.66-7.79-3.29-11.54-4.91-.63,1.61-1.25,3.25-1.86,4.91h13.4,0Z"/>
      <path class="cls-1" d="m139.9,64.05c-4.66.24-9.08.46-13.29.66-2.6,2.57-5.17,5.19-7.82,7.68,4.21.03,8.43-.03,12.96-.1,2.63-2.79,5.42-5.51,8.14-8.24h0Z"/>
      <path class="cls-1" d="m230.33,171.38c-11.85-4.84-22.72-9.12-33.06-13.08-4.03,7.44-8.34,15.44-12.28,24.01,10.15,5.3,20.79,10.69,32.68,16.45,4.02-9.31,8.36-18.53,12.66-27.37h0Z"/>
      <path class="cls-1" d="m163.23,145c-7.5-2.79-14.64-5.26-21.25-7.7-3.86,5.51-7.78,11.35-11.6,17.26,6.33,3.24,13.29,6.52,20.41,9.84,4.15-6.51,8.29-13.2,12.44-19.4h0Z"/>
      <path class="cls-1" d="m117.72,129.37c-5.18-1.75-9.91-3.35-14.41-5-3.26,4.02-6.68,8.38-9.96,12.86,4.29,2.07,8.98,4.26,13.72,6.53,3.43-4.98,7.11-9.87,10.65-14.39h0Z"/>
      <path class="cls-1" d="m100.74,123.58c-4.29-1.44-8.31-2.71-12.16-3.87-3.23,3.81-6.36,7.67-9.59,11.51,3.67,1.56,7.4,3.14,11.44,5.09,3.5-4.49,6.85-8.81,10.31-12.73Z"/>
      <path class="cls-1" d="m86.92,119.28c-3.57-1.15-7.04-2.28-10.44-3.43-2.83,3.35-5.67,6.65-8.56,10.07,3.13,1.4,6.44,2.97,9.81,4.49,3.15-3.79,6.26-7.55,9.2-11.13h0Z"/>
      <path class="cls-1" d="m74.23,115.16c-3.05-.92-6.03-1.8-8.76-2.68-2.85,3.17-5.55,6.12-8.22,9.29,2.56,1.01,5.31,2.15,8.32,3.59,2.84-3.61,5.84-6.99,8.66-10.21Z"/>
      <path class="cls-1" d="m64.14,112.2c-2.77-.76-5.25-1.64-7.75-2.35-2.44,2.64-4.94,5.47-7.26,8.22,2.25.99,4.57,2.08,7.26,2.99,2.5-2.85,5.15-5.94,7.75-8.86h0Z"/>
      <path class="cls-1" d="m55.06,109.42c-2.39-.64-4.64-1.2-6.76-1.82-2.24,2.44-4.54,4.84-6.67,7.23,1.94.74,4.07,1.61,6.19,2.65,2.36-2.77,4.8-5.4,7.24-8.07Z"/>
      <path class="cls-1" d="m47.32,107.3c-2.02-.56-3.96-1.15-5.81-1.79-2.07,2.23-4.16,4.45-6.11,6.61,1.63.78,3.43,1.56,5.28,2.28,2.21-2.34,4.4-4.74,6.65-7.1h0Z"/>
      <path class="cls-1" d="m40.24,105.28c-1.79-.54-3.38-1.15-4.92-1.64-1.9,1.91-3.78,3.86-5.63,5.76,1.36.85,2.93,1.61,4.62,2.29,1.99-2.18,3.93-4.29,5.93-6.41h0Z"/>
      <path class="cls-1" d="m34.19,103.55c-1.49-.51-2.97-.94-4.41-1.34-1.57,1.64-3.3,3.43-4.89,5.18,1.29.53,2.55,1.14,3.93,1.73,1.74-1.82,3.54-3.65,5.37-5.57h0Z"/>
      <path class="cls-1" d="m29.39,101.91c-1.24-.51-2.47-.97-3.73-1.39-1.5,1.55-3.12,3.29-4.6,4.86,1.12.56,2.2,1.16,3.36,1.73,1.63-1.73,3.33-3.42,4.97-5.2h0Z"/>
      <path class="cls-1" d="m25.09,100.17c-1.14-.42-2.16-.8-3.22-1.12-1.47,1.45-2.9,2.87-4.31,4.37.94.45,1.86,1,2.81,1.6,1.56-1.6,3.11-3.25,4.72-4.86h0Z"/>
      <path class="cls-1" d="m108.09,95.19c-4.05-.41-7.94-.73-11.68-1.14-2.76,2.97-5.58,6.02-8.39,9.02,3.6.6,7.2,1.33,11.24,2.15,2.95-3.41,5.86-6.8,8.82-10.03Z"/>
      <path class="cls-1" d="m94.72,93.78c-3.52-.44-6.96-.74-10.06-1.15-2.71,2.78-5.38,5.62-7.9,8.4,3.06.59,6.22,1.19,9.63,1.74,2.71-2.91,5.56-6.02,8.32-8.98Z"/>
      <path class="cls-1" d="m83.13,92.46c-3.21-.31-6.09-.58-8.89-.85-2.42,2.46-4.96,5.09-7.38,7.61,2.69.51,5.47,1.02,8.39,1.64,2.55-2.87,5.23-5.7,7.87-8.4Z"/>
      <path class="cls-1" d="m72.92,91.46c-2.74-.26-5.33-.42-7.81-.65-2.27,2.29-4.69,4.82-6.88,7.08,2.36.4,4.84.69,7.37,1.09,2.32-2.42,4.9-5.05,7.32-7.52h0Z"/>
      <path class="cls-1" d="m63.9,90.72c-2.39-.27-4.63-.59-6.88-.68-2.11,2.1-4.27,4.28-6.4,6.54,2.01.35,4.15.74,6.46,1.17,2.22-2.37,4.58-4.75,6.81-7.03Z"/>
      <path class="cls-1" d="m55.98,90c-2.09-.2-4.02-.38-5.98-.51-2.06,1.99-4.13,4.03-5.92,5.93,1.72.34,3.55.7,5.58.95,2.06-2.2,4.12-4.28,6.31-6.37h0Z"/>
      <path class="cls-1" d="m49.12,89.43c-1.87-.19-3.7-.31-5.34-.49-1.89,1.84-3.75,3.74-5.6,5.57,1.54.36,3.31.55,4.97.79,1.94-1.92,3.86-3.88,5.96-5.87h0Z"/>
      <path class="cls-1" d="m42.84,88.97c-1.66-.15-3.21-.3-4.68-.43-1.61,1.66-3.3,3.34-5.01,4.97,1.4.24,2.89.59,4.31.91,1.77-1.84,3.53-3.58,5.38-5.45Z"/>
      <path class="cls-1" d="m37.26,88.44c-1.42-.1-2.69-.27-3.99-.33-1.55,1.47-3.11,3-4.67,4.55,1.2.22,2.33.49,3.61.7,1.67-1.63,3.4-3.31,5.05-4.93h0Z"/>
      <path class="cls-1" d="m32.53,87.98c-1.22-.15-2.3-.28-3.44-.38-1.48,1.45-2.97,2.85-4.43,4.35,1,.24,2.08.42,3.2.7,1.53-1.56,3.12-3.14,4.67-4.68h0Z"/>
      <path class="cls-1" d="m28.61,87.57c-1.03-.17-1.91-.39-2.83-.56-1.34,1.34-2.72,2.7-3.97,3.95.81.24,1.73.47,2.58.76,1.39-1.39,2.84-2.79,4.21-4.15Z"/>
      <path class="cls-1" d="m25.19,86.89c-.8-.16-1.68-.21-2.4-.4-1.27,1.25-2.55,2.49-3.72,3.68.65.22,1.31.46,2.08.67,1.28-1.25,2.66-2.55,4.04-3.95h0Z"/>
      <path class="cls-1" d="m16.07,87.64c-.25-.21-.45-.54-.63-.77-.84.89-1.69,1.68-2.39,2.47-.01.39.12.73.29,1.06.92-.91,1.77-1.79,2.73-2.76h0Z"/>
      <path class="cls-1" d="m32.52,80.36c2.02-.43,4-.86,6.28-1.31.54-.27,1.04-.4,1.68-.64-2.42.59-4.61,1.06-6.74,1.56-.5.34-.83.18-1.22.38Z"/>
      <path class="cls-1" d="m46.26,78.11c2.86-.25,5.75-.24,8.89-.38.59-.05,1.26-.1,1.95-.31-3.29.31-6.3.24-9.2.42-.68.25-1.21.16-1.64.28h0Z"/>
      <path class="cls-1" d="m103.52,84.04c-3.64-.23-7.26-.36-10.53-.57-2.62,2.62-5.2,5.28-7.73,7.99,3.23.32,6.67.64,10.1,1.04,2.7-2.92,5.5-5.81,8.15-8.46h0Z"/>
      <path class="cls-1" d="m91.41,83.38c-3.26-.05-6.36-.12-9.26-.24-2.36,2.42-4.95,4.95-7.24,7.37,2.75.27,5.74.48,8.82.73,2.5-2.64,5.13-5.3,7.68-7.86h0Z"/>
      <path class="cls-1" d="m80.75,83.13c-2.88-.07-5.59-.07-8.25-.13-2.27,2.16-4.53,4.45-6.72,6.82,2.51.14,5.1.32,7.8.63,2.25-2.4,4.81-4.95,7.18-7.32h0Z"/>
      <path class="cls-1" d="m71.25,82.92c-2.54-.05-4.91,0-7.21-.08-2.17,2.08-4.29,4.16-6.35,6.22,2.17.1,4.43.37,6.86.63,2.21-2.26,4.47-4.59,6.7-6.77Z"/>
      <path class="cls-1" d="m62.93,82.79c-2.28.04-4.26-.06-6.34-.04-2.05,1.98-4.04,3.88-5.97,5.82,1.92.17,3.92.34,6.04.47,2.05-2.1,4.14-4.08,6.27-6.24Z"/>
      <path class="cls-1" d="m55.64,82.67c-2.03-.02-3.88-.03-5.72-.1-1.89,1.82-3.71,3.62-5.55,5.46,1.64.32,3.43.4,5.3.53,2-1.99,3.88-3.91,5.97-5.89h0Z"/>
      <path class="cls-1" d="m49.06,82.6c-1.72,0-3.46.08-4.95.04-1.72,1.61-3.49,3.34-5.23,4.99,1.5.09,3.04.21,4.67.41,1.76-1.83,3.67-3.61,5.52-5.43Z"/>
      <path class="cls-1" d="m112.65,74.33c-3.83.04-7.53.1-10.99.18-2.52,2.53-5.04,4.96-7.52,7.46,3.4.11,6.98.28,10.57.44,2.69-2.72,5.39-5.47,7.94-8.08h0Z"/>
      <path class="cls-1" d="m100.05,74.63c-3.37.01-6.64.16-9.68.26-2.39,2.32-4.79,4.64-7.11,6.94,2.95-.03,6.12.02,9.31.17,2.44-2.56,4.93-4.96,7.47-7.37Z"/>
      <path class="cls-1" d="m88.84,74.91c-2.99.06-5.89.18-8.62.3-2.18,2.1-4.4,4.26-6.62,6.53,2.62.02,5.37.07,8.2.11,2.31-2.34,4.72-4.7,7.04-6.94h0Z"/>
      <path class="cls-1" d="m78.96,75.23c-2.72.15-5.07.2-7.55.34-2.2,2.05-4.2,4.01-6.32,6.06,2.37.01,4.77-.01,7.35.04,2.08-2.18,4.31-4.34,6.53-6.44Z"/>
      <path class="cls-1" d="m70.13,75.68c-2.26.04-4.47.11-6.68.24-2.04,1.97-3.99,3.83-5.89,5.67,1.97.1,4.1.11,6.41.06,2.04-2.05,4.09-3.98,6.15-5.97Z"/>
      <path class="cls-1" d="m62.37,75.95c-2.15.15-4.05.23-5.87.3-1.93,1.77-3.9,3.56-5.66,5.3,1.8.03,3.68.09,5.75.04,1.89-1.83,3.81-3.69,5.78-5.63Z"/>
      <path class="cls-1" d="m55.37,76.46c-1.92.16-3.61.25-5.34.35-1.76,1.67-3.6,3.39-5.31,5.11,1.63-.13,3.34-.15,5.12-.22,1.77-1.66,3.53-3.33,5.52-5.23h0Z"/>
      <path class="cls-1" d="m108.18,66.53c-3.51.2-6.83.34-10.04.6-2.38,2.27-4.68,4.46-7,6.83,3.17-.21,6.34-.24,9.77-.34,2.33-2.37,4.77-4.73,7.27-7.09h0Z"/>
      <path class="cls-1" d="m96.53,67.35c-3.14.14-6.03.41-8.94.72-2.21,2.04-4.36,4.11-6.55,6.23,2.83-.24,5.59-.24,8.65-.34,2.31-2.25,4.62-4.55,6.85-6.61Z"/>
      <path class="cls-1" d="m86.24,68.18c-2.77.21-5.33.49-7.93.77-2.1,1.9-4.13,3.88-6.25,5.87,2.5-.25,4.96-.31,7.71-.51,2.06-1.99,4.25-4.05,6.46-6.13Z"/>
      <path class="cls-1" d="m77.05,69.04c-2.45.22-4.75.35-7.04.57-1.98,1.84-3.89,3.67-5.85,5.54,2.2-.11,4.37-.21,6.81-.32,2.08-1.96,4.01-3.87,6.08-5.78Z"/>
      <path class="cls-1" d="m68.87,69.75c-2.07.14-4.12.33-6.24.63-1.86,1.7-3.72,3.46-5.53,5.16,1.92-.09,3.92-.28,5.97-.34,2-1.87,3.92-3.64,5.79-5.45Z"/>
      <path class="cls-1" d="m56.31,71.7c-1.82.22-3.56.43-5.16.57-1.64,1.51-3.39,3.11-5.08,4.69,1.61-.14,3.26-.18,4.91-.28,1.68-1.65,3.49-3.31,5.33-4.98h0Z"/>
      <path class="cls-1" d="m50.17,72.35c-1.56.14-3.04.24-4.48.42-1.51,1.45-3.03,2.81-4.48,4.23,1.27-.02,2.73-.12,4.12-.17,1.55-1.45,3.23-3.02,4.85-4.48Z"/>
      <path class="cls-1" d="m104.38,60.09c-3.16.37-6.2.73-9.27,1.1-2.17,2.02-4.29,3.98-6.53,6.03,3.01-.39,5.83-.56,9.05-.91,2.2-2.13,4.49-4.13,6.74-6.22Z"/>
      <path class="cls-1" d="m93.7,61.34c-2.81.31-5.63.7-8.32,1.04-1.99,1.88-4.07,3.77-6.14,5.72,2.63-.29,5.17-.49,8-.73,2.23-2.09,4.36-4.03,6.46-6.03h0Z"/>
      <path class="cls-1" d="m84.1,62.53c-2.5.28-4.94.62-7.45,1-1.91,1.79-3.74,3.43-5.74,5.27,2.28-.22,4.62-.4,7.07-.56,2.04-1.95,4.15-3.9,6.12-5.7Z"/>
      <path class="cls-1" d="m75.56,63.69c-2.22.34-4.43.63-6.53.91-1.83,1.67-3.74,3.36-5.55,5.01,2.09-.21,4.14-.44,6.3-.68,2-1.81,3.9-3.53,5.78-5.24Z"/>
      <path class="cls-1" d="m62.25,66.05c-1.91.31-3.67.52-5.33.73-1.71,1.57-3.44,3.11-5.06,4.69,1.63-.17,3.3-.34,5.15-.57,1.72-1.6,3.44-3.17,5.24-4.84h0Z"/>
      <path class="cls-1" d="m55.69,67.25c-1.69.22-3.19.46-4.72.74-1.59,1.42-3.16,2.82-4.83,4.34,1.44-.19,2.99-.31,4.55-.44,1.63-1.56,3.29-3.1,5.01-4.65h0Z"/>
      <path class="cls-1" d="m111.15,52.63c-3.33.52-6.47.99-9.49,1.51-2.17,1.8-4.23,3.66-6.46,5.69,3.04-.47,6.12-.8,9.26-1.2,2.24-2.07,4.45-4.03,6.68-6h0Z"/>
      <path class="cls-1" d="m100.23,54.29c-2.97.51-5.81.91-8.6,1.39-1.93,1.79-3.95,3.51-6,5.39,2.7-.39,5.49-.73,8.32-1.16,2.07-1.88,4.13-3.71,6.29-5.62Z"/>
      <path class="cls-1" d="m107.93,47.64c-3.03.53-5.92,1.12-8.76,1.65-2.04,1.8-4.03,3.53-6.03,5.27,2.67-.46,5.58-.9,8.62-1.42,2.01-1.79,4.11-3.64,6.16-5.5h0Z"/>
      <path class="cls-1" d="m140.84,49.53c-4.35.6-8.4,1.16-12.26,1.56-2.56,2.21-4.91,4.47-7.18,6.6,3.74-.31,7.73-.76,11.95-1.22,2.4-2.29,4.9-4.61,7.49-6.94h0Z"/>
      <path class="cls-1" d="m23.4,92.36c-.92-.25-1.77-.52-2.58-.74-1.25,1.24-2.55,2.5-3.78,3.9.62.32,1.36.72,2.14,1.07,1.34-1.35,2.79-2.83,4.22-4.22Z"/>
      <path class="cls-1" d="m26.86,93.24c-1.08-.25-2.09-.53-3.05-.78-1.47,1.49-2.88,2.92-4.22,4.28.78.43,1.64.83,2.58,1.24,1.53-1.58,3.12-3.2,4.7-4.74Z"/>
      <path class="cls-1" d="m30.88,94.15c-1.24-.22-2.37-.53-3.46-.84-1.65,1.67-3.24,3.25-4.73,4.8,1.02.33,2.04.72,3.25,1.02,1.63-1.67,3.33-3.34,4.94-4.98h0Z"/>
      <path class="cls-1" d="m36.02,95.17c-1.45-.31-2.87-.64-4.27-.87-1.65,1.63-3.38,3.47-5.05,5.2,1.26.34,2.49.84,3.77,1.34,1.81-1.95,3.72-3.8,5.55-5.67h0Z"/>
      <path class="cls-1" d="m41.6,96.1c-1.7-.25-3.39-.51-4.82-.83-1.86,1.84-3.77,3.72-5.62,5.65,1.44.47,2.95.87,4.52,1.32,1.87-2.01,3.85-4.03,5.92-6.13Z"/>
      <path class="cls-1" d="m47.96,97.31c-1.96-.3-3.75-.64-5.47-1-2.14,2.17-4.15,4.26-6.02,6.24,1.57.45,3.28,1.01,5.03,1.54,2.2-2.32,4.23-4.45,6.46-6.77h0Z"/>
      <path class="cls-1" d="m55.15,98.82c-2.23-.38-4.29-.81-6.31-1.22-2.16,2.29-4.3,4.5-6.46,6.77,1.85.6,3.82,1.19,5.84,1.78,2.29-2.49,4.67-4.99,6.92-7.34Z"/>
      <path class="cls-1" d="m64.24,100.13c-2.55-.51-5-.89-7.28-1.22-2.33,2.32-4.7,4.87-7.02,7.35,2.15.51,4.47,1.07,6.79,1.83,2.55-2.8,4.98-5.4,7.51-7.96h0Z"/>
      <path class="cls-1" d="m73.58,101.79c-2.88-.56-5.71-1.19-8.2-1.69-2.55,2.67-5.13,5.31-7.56,8.04,2.45.75,5.05,1.57,7.89,2.24,2.6-2.88,5.22-5.68,7.88-8.59h0Z"/>
      <path class="cls-1" d="m84.69,103.77c-3.33-.58-6.64-1.08-9.49-1.9-2.69,2.96-5.44,5.95-7.99,8.86,2.83.82,5.81,1.65,8.96,2.44,2.88-3.23,5.64-6.29,8.52-9.4h0Z"/>
      <path class="cls-1" d="m97.28,106.43c-3.92-.81-7.52-1.53-10.9-2.3-2.91,3.19-5.84,6.38-8.71,9.7,3.53.98,6.79,2.19,10.53,3.15,3.09-3.55,6.14-7.08,9.09-10.55Z"/>
      <path class="cls-1" d="m111.83,109.75c-4.58-.9-8.64-1.74-12.73-2.63-3.05,3.5-6.1,7.07-9.15,10.56,3.82,1.26,7.87,2.5,12.12,3.76,3.36-4.09,6.55-7.94,9.77-11.68Z"/>
      <path class="cls-1" d="m263.26,89.5c-2.88-2.3-5.71-4.62-8.29-6.74-4.17,2.36-8.32,4.55-12.51,7.04,2.34,2.44,4.65,4.99,7.45,7.61,4.52-2.67,9.03-5.32,13.34-7.9h0Z"/>
      <path class="cls-1" d="m121.81,84.78c-1.15-1.15-2.27-2.23-3.43-3.15-1.62,1.14-3.32,2.35-4.99,3.5,1.04,1.09,2.02,2.27,3.07,3.58,1.8-1.34,3.59-2.67,5.35-3.93h0Z"/>
      <path class="cls-1" d="m76.4,42.16c-.45-.68-.86-1.39-1.23-2.1-1.46,1.21-3.02,2.51-4.55,3.79.24.82.58,1.56.96,2.36,1.6-1.34,3.23-2.71,4.83-4.05h0Z"/>
      <path class="cls-1" d="m313.58,160.14c-3.6-2.82-7-5.52-10.31-7.89-4.3,1.32-8.52,2.88-12.95,4.38,3.21,2.6,6.37,5.4,9.62,8.43,4.62-1.73,9.34-3.3,13.64-4.91h0Z"/>
      <path class="cls-1" d="m86.69,51.3c-.35-.39-.63-.77-.91-1.13-.95.69-1.9,1.36-2.83,2.04.21.42.43.91.68,1.32,1.02-.74,2-1.47,3.06-2.22h0Z"/>
      <path class="cls-1" d="m119.41,33.49c-.86-.36-1.67-.69-2.47-.98-1.21.82-2.42,1.67-3.66,2.57.68.41,1.42.77,2.26,1.23,1.26-.98,2.57-1.9,3.87-2.82h0Z"/>
      <path class="cls-1" d="m301.52,66.84c-3.39-1.39-6.55-2.61-9.55-3.76-3.88,1.6-7.55,3.14-11.06,4.77,2.71,1.35,5.56,2.73,8.75,4.43,4.1-1.91,8.08-3.8,11.85-5.45Z"/>
      <path class="cls-1" d="m105.53,31.32c-.52-.24-.9-.56-1.31-.8-.99.64-1.93,1.37-2.88,2.07.35.31.67.67,1.09.95.94-.72,2.02-1.48,3.1-2.22Z"/>
      <path class="cls-1" d="m83.96,26.01c-.27-.2-.57-.35-.84-.54-.71.55-1.49,1.12-2.17,1.64.24.21.44.43.65.68.78-.59,1.59-1.18,2.36-1.78Z"/>
      <path class="cls-1" d="m31.86,80.12c-.12-.3-.27-.59-.35-.87-.57.39-1.1.83-1.67,1.24.04.34.12.67.2.99.64-.45,1.21-.9,1.81-1.35Z"/>
      <path class="cls-1" d="m316.19,112.58c-2.42-1.15-4.37-2.24-6.43-3.29-3.03.86-5.93,1.63-8.82,2.47,1.77,1.07,3.78,2.31,5.91,3.5,3.17-.86,6.27-1.8,9.35-2.68Z"/>
      <path class="cls-1" d="m138.39,27.91c-.85-.25-1.71-.42-2.45-.68-1.18.77-2.43,1.57-3.54,2.31.71.31,1.38.58,2.16.87,1.17-.81,2.55-1.69,3.83-2.5Z"/>
      <path class="cls-1" d="m107.15,8.91c-.54-.1-1.08-.19-1.6-.21-.89.56-1.73,1.2-2.58,1.82.5.09,1.01.18,1.52.29.91-.66,1.79-1.29,2.67-1.9Z"/>
      <path class="cls-1" d="m93.74,32.18c-.49-.15-.97-.26-1.42-.4-.76.55-1.62,1.14-2.41,1.68.45.16.87.31,1.33.47.86-.6,1.65-1.16,2.51-1.75h0Z"/>
      <path class="cls-1" d="m11.28,95.16c-.14-.22-.24-.4-.38-.63-.45.31-.89.62-1.31.9.1.23.17.45.31.64.45-.29.94-.6,1.38-.91Z"/>
      <path class="cls-1" d="m82.22,44.72c-.49-.16-.95-.34-1.4-.46-.71.48-1.5,1-2.26,1.49.45.16.91.33,1.33.52.75-.51,1.54-1.02,2.32-1.55Z"/>
      <path class="cls-1" d="m158.28,51.43c-1.06-.28-2.08-.56-3.06-.82-1.29.69-2.54,1.35-3.9,2.08,1.01.23,1.99.54,2.98.83,1.28-.71,2.68-1.42,3.98-2.09Z"/>
      <path class="cls-1" d="m7.86,90.3c-.13-.23-.3-.43-.44-.6-.44.28-.84.57-1.25.9.13.2.27.4.4.63.44-.31.89-.63,1.29-.92Z"/>
      <path class="cls-1" d="m70.39,55.69c-.45-.16-.91-.37-1.33-.54-.7.47-1.34.9-2,1.35.38.18.77.38,1.19.59.7-.49,1.41-.91,2.15-1.41h0Z"/>
      <path class="cls-1" d="m76.14,37.09c-.4-.1-.79-.14-1.18-.22-.58.39-1.18.83-1.77,1.2.32.07.72.17,1.05.28.64-.44,1.25-.87,1.89-1.27h0Z"/>
      <path class="cls-1" d="m367.53,138.47c-3.22-.97-6.63-2.12-10.08-3.12-3.19.68-6.64,1.17-9.88,1.77,3.1.95,6.45,2.06,9.55,3.16,3.62-.61,6.97-1.17,10.41-1.8h0Z"/>
      <path class="cls-1" d="m119.74,14.7c-.71.03-1.35.04-1.99.04-.75.48-1.53.97-2.34,1.51.64-.03,1.22.02,1.86.02.81-.53,1.62-1.07,2.47-1.57h0Z"/>
      <path class="cls-1" d="m16.7,93.11c-.22-.16-.44-.33-.58-.48-.41.26-.85.55-1.22.79.14.17.32.32.5.51.44-.3.85-.55,1.3-.81h0Z"/>
      <path class="cls-1" d="m208.29,75.89c-1.6-.39-3.32-.62-4.96-.98-1.61.56-3.08,1.05-4.52,1.63,1.49.27,3.1.66,4.78,1.04,1.57-.58,3.18-1.14,4.71-1.69h0Z"/>
      <path class="cls-1" d="m202.81,105c-1.45-.9-2.88-1.8-4.32-2.59-2.02.78-4.07,1.68-6.15,2.56,1.34.89,2.67,1.76,4.02,2.78,2.24-1.02,4.37-1.87,6.45-2.75h0Z"/>
      <path class="cls-1" d="m12.13,100.48c-.14-.4-.24-.8-.34-1.15-.57.41-1.17.86-1.78,1.32.06.41.12.87.22,1.28.61-.48,1.26-.97,1.9-1.46h0Z"/>
      <path class="cls-1" d="m167.74,69.05c-1.3-.74-2.51-1.41-3.63-2.06-1.72.95-3.51,1.96-5.3,2.99,1.12.69,2.13,1.52,3.38,2.23,1.9-1.07,3.72-2.13,5.54-3.16Z"/>
    </g>
  </g>
</svg>