<?xml version="1.0" encoding="UTF-8"?>
<svg id="Layer_2" data-name="Layer 2" xmlns="http://www.w3.org/2000/svg" viewBox="0 0 299.53 200">
  <defs>
    <style>
      .cls-1 {
        stroke-width: 0px;
      }

      .cls-1, .cls-2 {
        fill: none;
      }

      .cls-2 {
        stroke: #666;
        stroke-miterlimit: 10;
        stroke-width: .25px;
      }
    </style>
  </defs>
  <g id="Layer_2-2" data-name="Layer 2">
    <rect class="cls-1" width="299.53" height="200"/>
    <g>
      <path class="cls-2" d="M.13,199.8c99.74-.42,199.51-.61,299.25,0"/>
      <path class="cls-2" d="M.13,195.82c28.88-1.93,58.19-2.59,87.11-1.07,11.81.62,23.65.93,35.47.27,12.88-.71,25.15-3.56,37.86-5.3,22.61-3.1,45.53,4.18,68.04,5.39,23.71,1.28,47-2.05,70.77.99"/>
      <path class="cls-2" d="M.13,191.38c29.99-3.32,61.08-3.92,91.14-.95,12.05,1.19,24.21,1.82,36.28.56,14.25-1.49,26.61-6.97,40.32-10.32,22.9-5.59,45.51,7.98,67.99,10.19,9.87.97,19.63-1.15,29.48-1.78,11.64-.75,22.74.45,34.04,3.33"/>
      <path class="cls-2" d="M.13,186.56c30.91-4.48,62.7-3.93,93.64.22,12.17,1.63,24.35,2.53,36.56.64,6.35-.99,12.54-2.64,18.6-4.78,8.24-2.9,15.83-8.23,24-10.89,22.92-7.48,44.68,11.6,66.41,15.01,9.98,1.56,19.08-1.68,28.9-2.8,10.95-1.25,20.91.89,31.15,4.75"/>
      <path class="cls-2" d="M.13,181.44c30.26-5.3,61.18-3.64,91.34,1.72,13.09,2.33,26.19,3.87,39.36,1.19,16.72-3.4,29.05-13.44,44.35-19.87,24.82-10.41,44.59,14.85,67.74,18.69,9.14,1.52,16.68-2.35,25.43-4.04,11.23-2.17,20.93,1.02,31.03,5.89"/>
      <path class="cls-2" d="M.13,176.09c30.29-6.21,60-2.54,89.84,4.19,13.13,2.96,26.29,4.58,39.53,1.3,6.87-1.7,13.37-4.47,19.64-7.73,9.39-4.87,17.7-13.01,27.12-17.36,25.32-11.7,43.39,17.8,65.91,22.7,10.25,2.23,17.07-2.67,26.52-5.07,11.24-2.86,21.03,1.75,30.69,7.2"/>
      <path class="cls-2" d="M.13,170.62c29.69-7.05,56.92-1.16,85.69,6.67,13.36,3.63,26.71,5.83,40.31,2.06,7.2-1.99,13.9-5.28,20.33-9.03,10.08-5.87,18.77-15.22,28.92-20.54,26.65-13.97,42.45,20.29,65.48,25.74,10.83,2.57,17.17-3.32,26.8-6.35,11.67-3.67,22.04,2.43,31.71,8.47"/>
      <path class="cls-2" d="M.13,165.08c28.35-7.81,52.43-.1,79.3,8.74,13.33,4.38,26.62,7.66,40.51,4.07,21.13-5.46,34.9-22.08,52.66-33.27,28.84-18.18,41.69,22.3,66.85,27.46,10.89,2.23,17.05-4.71,26.68-8.07,12.19-4.25,23.45,3.4,33.24,9.94"/>
      <path class="cls-2" d="M.13,159.57c27.51-8.88,48.63,1.1,73.9,11,13.64,5.34,27.44,9.67,41.98,5.26,21.55-6.55,35.59-24.38,53.41-36.78,30.29-21.08,40.23,23.97,66.25,29.26,11.07,2.25,17.91-5.45,27.39-9.21,13.39-5.31,25.68,3.73,36.33,11.16"/>
      <path class="cls-2" d="M.13,154.16c12.33-4.69,24.35-5.78,37.1-1.99,11.77,3.5,21.88,10.56,32.99,15.56,13.12,5.9,26.6,11.08,40.95,6.38,22.8-7.47,36.53-27.76,55.14-41.22,30.13-21.8,38.9,24.66,63.64,30.93,12.52,3.17,19.78-6.02,30.43-10.23,14.39-5.68,27.84,4.93,39,12.96"/>
      <path class="cls-2" d="M.13,148.94c11.09-5.02,22.14-6.59,33.86-2.66,11.54,3.87,20.91,12,31.54,17.63,12.36,6.55,25.09,13.13,39.32,8.93,23.86-7.03,38.83-29.81,57.34-44.56,31.57-25.14,36.81,25.42,62.67,31.24,13.27,2.99,21.53-7.67,32.93-11.83,15.33-5.59,30.03,6.62,41.58,15.17"/>
      <path class="cls-2" d="M.13,143.98c25.64-13.76,41.03,2.52,61.91,15.67,11.86,7.47,24.63,16.11,39.16,11.3,23.53-7.79,39.01-31.21,56.85-46.79,11.51-10.05,22.54-12.39,32.4.33,8.55,11.02,14.05,26.9,29.27,30.1,13.26,2.78,22.62-8.13,33.99-12.58,16.73-6.55,33.3,7.77,45.66,17.16"/>
      <path class="cls-2" d="M.13,139.37c24.83-15.6,40.3.6,59.89,15.3,10.45,7.84,22.27,18.7,36.38,15.02,8.59-2.24,16.21-8.61,22.77-14.24,12.61-10.81,23.07-23.56,35.04-34.97,11.48-10.95,22.79-15.25,32.63-.81,7.33,10.76,12.96,27.39,27.7,29.74,14.02,2.23,24.27-9.79,36.57-13.95,17.73-6,35.61,10.12,48.27,20.01"/>
      <path class="cls-2" d="M.13,135.19c9.68-6.96,20.36-11.33,32.16-7.09,10.5,3.78,18.67,12.55,26.74,19.86,9.1,8.24,20.59,22.87,34.55,20,7.86-1.62,14.78-7.63,20.65-12.76,12.96-11.31,24.33-24.41,35.98-37.01,10.91-11.8,23-20.29,33.17-3.86,6.85,11.05,12.17,28.54,27.71,29.15,13.79.55,24.15-10.46,36.58-14.52,19.06-6.23,38.4,12.07,51.72,22.82"/>
      <path class="cls-2" d="M.13,131.35c9.94-7.74,21-12.88,33.55-8.42,10.59,3.76,19.36,12.34,27.19,20.05,8.14,8.02,19.06,23.78,32.39,21.09,7.46-1.5,14.02-7.53,19.52-12.42,12.57-11.19,23.8-23.95,35.16-36.32,10.4-11.33,22.62-21.66,32.94-5.32,6.75,10.69,11.88,27.76,27.12,27.97,13.67.19,25.07-9.73,37.83-13.13,19.87-5.29,39.28,12.06,53.55,23.14"/>
      <path class="cls-2" d="M.13,127.08c10.96-8.62,22.66-13.26,36.05-7.27,11.08,4.95,20.78,14.32,29.36,22.61,7.69,7.44,17.22,20,29.35,16.09,7.4-2.39,13.84-8.77,19.36-13.9,11.07-10.28,21.35-21.41,31.8-32.32,9.95-10.4,22.03-20.52,32.72-6.01,7.61,10.31,12.45,26.81,27.64,27.57,13.53.67,26.61-8.25,39.66-10.65,19.73-3.62,38.07,9.97,53.31,20.45"/>
      <path class="cls-2" d="M.13,122.33c11.79-8.99,23.8-12.94,37.57-5.84,10.55,5.44,20.29,14.19,28.96,22.18,8.09,7.45,18.02,20.28,30.24,14.6,6.38-2.96,11.63-8.61,16.64-13.38,10.54-10.05,20.51-20.71,30.81-31.01,10.65-10.65,22.71-18.92,33.76-4.75,7.61,9.75,13.08,25.11,27.5,25.74,13.27.59,26.45-5.76,39.39-7.88,19.99-3.26,37.73,6.93,54.37,16.74"/>
      <path class="cls-2" d="M.13,117.19c13.59-9.81,26.56-12.02,41.04-2.9,10.4,6.55,20.02,15.43,29.33,23.44,7.77,6.68,16.51,17.18,27.39,11.1,5.83-3.26,10.67-9.06,15.31-13.75,9.88-10,19.5-20.24,29.66-29.96,10.53-10.06,22.59-17.33,33.8-4.61,8.37,9.49,14.17,24.63,28.55,26.01,12.68,1.21,26.49-3.74,38.96-5.68,19.93-3.08,37.46,3.96,55.2,12.55"/>
      <path class="cls-2" d="M.13,111.76c14.73-9.9,28.27-10.97,43.03-.6,11.14,7.82,21.14,17.7,31.73,26.27,7.28,5.89,15.34,13.96,24.44,7.2,6.02-4.47,10.93-11.21,15.92-16.7,8.45-9.27,17.1-18.42,26.4-26.86,11.39-10.34,23.74-15.22,35.2-2.76,8.39,9.12,14.83,23.35,28.62,24.9,13.05,1.46,27.17-1.97,40.1-3.74,19.02-2.61,35.94,1.64,53.8,8.25"/>
      <path class="cls-2" d="M.13,106.12c16.79-10.49,31.06-9.38,46.48,2.92,11.69,9.33,21.66,20.2,33.85,29,8.36,6.04,14.39,9.45,22.02,1.03,12.97-14.3,23.48-30.61,38.68-42.94,11.16-9.05,23.43-12.43,34.55-1.89,9.39,8.9,15.71,22.56,29.27,25.77,12.52,2.96,28.23.04,40.81-1.68,18.57-2.53,35.33-1.04,53.6,3.45"/>
      <path class="cls-2" d="M.13,100.38c18.8-10.97,34.11-7.4,49.96,6.63,11.36,10.06,20.8,21.7,33.69,29.96,9.46,6.07,14.44,7.14,20.91-2.52,10.25-15.31,20.58-30.95,35.51-42.24,12.08-9.13,24.32-11.18,36.12-.65,9.83,8.77,16.82,22.87,30.72,25.98,12.33,2.75,26.71,1.44,39.13-.25,18.04-2.46,34.98-3.57,53.21-1.54"/>
      <path class="cls-2" d="M.13,94.61c20.49-11.31,36.52-5.74,52.77,9.74,11.5,10.95,20.97,24.32,35.12,32.09,10.51,5.76,14.19,2.77,19.2-7.11,7.97-15.71,18.05-31.59,32.82-41.83,12.5-8.67,25.14-8.94,36.89,1.03,10.24,8.69,17.7,22.43,31.42,26.28,29.43,8.26,61.46-4.09,91.02-5.11"/>
      <path class="cls-2" d="M.13,88.91c10.19-5.43,19.78-8.65,31.19-4.7,9.44,3.27,17.16,10.14,24.09,17.13,11.42,11.54,21.18,27.08,36.4,33.94,11.41,5.15,14.11-1.79,17.96-11.46,6.28-15.78,15.75-31.95,30.56-41.19,32.27-20.14,43.92,20.61,69.59,29.45,29.98,10.32,60.15-2.7,89.47-8.38"/>
      <path class="cls-2" d="M.13,83.37c10.63-5.62,20.43-8.76,32.05-4.49,9.74,3.58,17.62,10.9,24.68,18.32,11.1,11.66,22.58,31.84,39.14,36.49,11.59,3.25,13.42-7.59,16.36-16.32,5.14-15.28,14-32.12,28.81-40.2,30.76-16.78,46.26,20.95,69.48,31.61,30.47,13.99,59.98-.35,88.73-10.88"/>
      <path class="cls-2" d="M.13,78.08c10.74-5.84,20.41-9.01,32.23-4.87,9.8,3.43,17.81,11.09,24.77,18.54,11.3,12.11,23.42,35.1,41,38.53,11.95,2.33,13.62-9.6,16.23-18.56,4.48-15.37,12.55-32.38,28.03-39.53,30.81-14.22,47.42,21.99,70.14,33.71,11.83,6.1,27.15,9.22,40.33,7.1,16.71-2.69,31.98-12.58,46.52-20.61"/>
      <path class="cls-2" d="M.13,73.14c11.44-6.61,22.49-10.42,35.15-4.71,9.5,4.29,17.04,12.17,23.85,19.82,10.21,11.46,23.07,35.62,40.24,37.43,12.92,1.36,14.56-12.75,17.32-22.27,4.28-14.72,11.99-30.51,27.51-36.19,30.57-11.2,48.26,22.38,70.32,35.5,11.15,6.63,25.72,11.17,38.76,9.55,17.47-2.18,32.59-14.81,46.1-25.01"/>
      <path class="cls-2" d="M.13,68.63c10.8-6.88,21.43-11.66,34.18-6.51,10.22,4.13,18.36,12.89,25.38,21.08,10.04,11.71,22.66,35.74,40.5,36.17,12.72.3,15.07-14.01,18.07-23.57,4.64-14.77,11.98-29.09,28.25-33.27,31.17-8,48.47,22.7,70.77,37.42,10.92,7.21,25.48,13.16,38.77,11.24,17.39-2.51,31.37-16.96,43.32-28.56"/>
      <path class="cls-2" d="M.13,64.64c9.91-7.18,20.21-13.2,32.81-8.98,9.82,3.29,17.56,11.34,24.17,18.97,10.83,12.5,21.72,34.74,40.36,36.16,14.17,1.08,17.85-12.69,21.93-23.59,5.56-14.86,13.31-27.45,30.35-29.75,30.2-4.08,47.6,21.88,68.58,38.21,10.52,8.19,24.76,16.03,38.52,14.69,18.25-1.78,31.69-18.75,42.53-31.76"/>
      <path class="cls-2" d="M.13,61.5c9.86-6.88,20.03-12.55,32.39-8.52,9.62,3.13,17.28,10.83,23.81,18.23,10.52,11.92,21.66,34.8,39.76,35.43,14,.48,18.79-11.92,23.81-22.81,6.44-13.97,15.15-26.75,31.66-28.98,29.14-3.93,47.34,20.32,68.02,35.82,10.15,7.61,24.46,15.35,37.49,15.09,18.22-.36,31.71-17.68,42.3-30.33"/>
      <path class="cls-2" d="M.13,59.35c9.71-6.64,19.73-12.15,31.84-8.49,9.36,2.83,16.9,10.03,23.33,17.08,10.35,11.36,21.44,34.01,38.96,34.11,13.74.08,19.59-10.85,25.58-21.49,7.32-13,16.94-25.48,32.87-27.67,28.09-3.85,47.06,17.9,67.75,32.37,10.05,7.03,24.2,14.87,36.64,15.98,18.13,1.61,31.84-15.88,42.27-28.07"/>
      <path class="cls-2" d="M.13,58.01c9.31-6.36,19.27-11.86,30.9-8.91,9.92,2.51,17.79,10.01,24.54,17.26,10.26,11.03,20.55,31.52,37.7,30.75,12.97-.57,19.58-10.42,26.36-20.11,8.32-11.9,18.36-23.06,33.6-25.23,27.66-3.93,47.04,14.87,68.56,28.28,9.94,6.2,22.56,13.55,34.01,16.51,18.57,4.8,32.71-12.59,43.58-24.88"/>
      <path class="cls-2" d="M.13,57.33c9.06-6.27,18.8-11.89,30.24-9.56,9.52,1.94,17.26,8.61,23.9,15.31,10.41,10.5,20.09,29.35,36.7,28.62,12.6-.56,20.18-8.85,27.89-17.78,9.24-10.7,19.9-20.86,34.55-22.99,26.49-3.85,46.79,11.18,68.57,23.14,10.8,5.94,22.17,13.19,33.51,17.99,18.26,7.73,32.62-9,43.89-21.21"/>
      <path class="cls-2" d="M.13,57.12c19.06-13.51,35.54-13.44,52.84,2.58,10.63,9.83,19.65,26.71,35.68,26.14,12.19-.44,20.66-7.16,29.25-15.04,10.12-9.29,21.27-18.28,35.34-20.37,25.25-3.75,46.62,7.12,68.59,17.43,12.09,5.68,21.88,12.8,33.14,19.7,17.79,10.9,32.31-4.66,44.4-17.13"/>
      <path class="cls-2" d="M.13,57.21c17.74-12.99,34.06-15.51,51.62-1.05,10.9,8.98,19.3,23.68,34.68,23.38,25.6-.5,41.37-25.57,66.4-29.35,23.97-3.62,46.49,2.8,68.54,11.31,13.48,5.2,21.96,12.57,32.9,21.56,17.15,14.1,31.73.31,45.11-12.76"/>
      <path class="cls-2" d="M.13,57.43c16.22-12.36,32.41-17.59,50.13-5.35,10.95,7.57,18.98,20.21,33.14,20.7,25.45.88,44.38-19.05,68.81-22.86,22.28-3.47,46.1-1.55,67.6,4.9,15.31,4.59,23.12,12.94,33.91,24.08,4.03,4.16,8.56,8.5,14.62,9.15,12.04,1.3,23.31-10.63,31.05-17.8"/>
      <path class="cls-2" d="M.13,57.62c15.09-11.96,31.21-19.56,49.32-9.55,11.2,6.19,19,16.71,32.36,17.49,24.86,1.45,45.8-11.87,69.72-15.58,21.45-3.33,45.77-6.11,67.19-1.51,16.48,3.53,23.9,13.39,33.89,25.99,3.83,4.83,8.16,10.38,14.48,11.89,12.22,2.93,24.27-9.11,32.28-16.12"/>
      <path class="cls-2" d="M.13,57.58c14.73-12.13,31.09-21.51,50.05-13.42,10.34,4.41,18.03,12.5,29.53,13.62,24.72,2.42,47.2-4.15,71.34-7.69,12.72-1.87,25.25-3.72,37.86-6.26,9.8-1.97,19.33-3,29.3-1.57,17.22,2.47,24.49,14.77,33.42,28.17,3.57,5.37,7.87,12.03,14.37,14.16,12.45,4.09,24.86-7.56,33.36-14.63"/>
      <path class="cls-2" d="M.13,57.17c14.18-12.05,30.56-23.22,49.95-18.06,10.28,2.74,18.57,9.11,29.25,10.46,24.37,3.07,46.94,3.77,71.29.38,12.89-1.79,24.98-4.44,37.27-8.7,9.47-3.28,18.55-5.97,28.7-5.25,18.08,1.28,25.42,15.81,33.58,29.92,3.48,6.01,7.67,13.75,14.41,16.67,12.69,5.51,25.76-6.07,34.8-13.24"/>
      <path class="cls-2" d="M.13,56.2c13.98-12.17,30.3-24.59,49.91-22.71,10.53,1.01,20.17,5.99,30.63,7.53,23.9,3.52,44.93,11.56,69.49,8.56,12.99-1.59,24.67-4.98,36.37-10.78,8.82-4.37,17.22-8.79,27.32-8.92,19.64-.24,27.06,16.91,34.96,32.03,3.41,6.53,7.52,15.03,14.48,18.54,12.91,6.5,26.52-4.95,36.08-12.24"/>
      <path class="cls-2" d="M.13,54.5c14.27-12.56,30.63-25.8,50.44-27.1,10.68-.71,21.92,2.47,32.32,4.62,23.38,4.84,42.84,19.57,67.67,16.89,12.76-1.38,24.04-5.53,34.74-12.53,8.63-5.65,16.55-11.71,27.27-12.34,20.07-1.17,27.41,18.75,34.74,33.86,3.48,7.18,7.47,15.86,14.65,20.1,12.88,7.63,27.74-4.42,37.44-11.6"/>
      <path class="cls-2" d="M.13,51.9C24.55,30.46,50.29,13.93,83.54,21.96c23.67,5.72,41.9,27.97,67.58,25.87,13.01-1.06,23.97-6.29,33.87-14.56,7.75-6.47,14.66-13.57,25.24-14.72,20.17-2.18,27.57,18.22,34.48,33.31,3.77,8.24,7.86,18.54,16.05,23.45,13.21,7.91,28.54-4.24,38.61-11.57"/>
      <path class="cls-2" d="M.13,48.37C23.63,28.3,53.86,6.1,86.74,15.3c23.08,6.46,40.51,31.07,65.88,29.77,12.68-.65,23.46-6.73,32.41-15.33,7.1-6.83,13.45-14.52,23.9-15.68,19.35-2.15,27.23,17.99,34.05,32.3,4.08,8.56,8.36,19.05,16.75,24.32,13.44,8.44,28.97-3.08,39.64-10.52"/>
      <path class="cls-2" d="M.13,44.68C23.72,25.46,54.68,4.24,87.04,12.21c23.78,5.86,42.62,30.28,68.38,28.6,11.67-.76,21.45-6.43,29.64-14.42,6.54-6.38,12.27-13.65,21.82-15.21,19.04-3.11,28.45,17.53,35.84,31.22,4.25,7.86,8.85,16.96,16.55,22.03,13.47,8.87,28.64-.95,40.1-8.33"/>
      <path class="cls-2" d="M.13,40.98C24.16,22.44,56.63,1.94,88.75,10.11c23.35,5.94,43.34,28.23,68.54,26.86,10.74-.58,20.15-6.31,27.67-13.59,6.02-5.84,11.38-12.79,20.03-14.62,18.74-3.96,29.53,16.84,37.69,29.83,4.91,7.81,10.04,16.4,18.47,20.81,13.33,6.98,26.6-.73,38.23-7.63"/>
      <path class="cls-2" d="M.13,37.29C24.93,19.33,58.19.46,90.28,8.41c23.13,5.73,43.97,26.37,68.78,24.67,9.99-.68,18.54-5.7,25.68-12.42,6-5.64,11.4-12.53,19.98-14.11,17.82-3.29,29.43,16.24,38.13,28.34,4.99,6.94,10.28,14.03,17.89,18.24,13.24,7.32,26.58.62,38.63-5.96"/>
      <path class="cls-2" d="M.13,33.59C25.11,16.78,57.33.55,88.64,6.45c24.23,4.57,46.14,24.81,71.59,23.03,9.65-.68,17.87-5.6,24.9-11.93,5.75-5.18,10.97-11.14,18.94-12.65,16.49-3.12,28.78,13.71,37.84,24.7,5.93,7.2,12.42,15.1,21.29,18.78,12.55,5.21,24.91-.35,36.18-6"/>
      <path class="cls-2" d="M.13,29.9C25.73,14.08,58.62-.43,89.64,5.5c23.65,4.52,46.63,22.49,71.36,20.67,17.96-1.32,25.8-18.93,41.99-22.49,16.28-3.58,29.53,12.27,39.54,22.53,6.02,6.17,12.3,12.65,20.42,16,12.58,5.19,24.78.59,36.42-4.72"/>
      <path class="cls-2" d="M.13,26.21C26.4,11.52,58.67-.39,89.4,4.55c23.84,3.83,47.24,20.12,71.93,18.27,16.96-1.27,26.02-17.08,41.68-20.15,15.26-2.99,28.39,9.6,38.88,18.79,6.47,5.68,13.13,11.64,21.28,14.79,12.48,4.83,24.43,1.12,36.22-3.75"/>
      <path class="cls-2" d="M.13,22.51C26.8,9.3,58.7-.45,88.88,3.85c23.86,3.4,47.81,17.49,72.29,15.71,16.27-1.18,26.8-14.9,42.16-17.69,15.16-2.76,28.96,8.62,40.3,16.92,6.16,4.51,12.57,9.07,19.83,11.64,12.52,4.43,23.94,1.51,35.91-2.93"/>
      <path class="cls-2" d="M.13,18.82C27.08,7.3,58.54-.41,88.12,3.24c23.9,2.95,48.08,14.73,72.43,13.12,15.98-1.06,28.2-12.53,43.61-15.03,14.23-2.31,27.64,6.28,39.29,13.27,18.92,11.36,34.54,14.95,55.93,7.95"/>
      <path class="cls-2" d="M.13,15.13C27.24,5.5,57.08.2,85.95,2.64c24.39,2.06,48.65,11.69,73.3,10.45,16.53-.83,30.69-10.62,46.97-12.28,13.44-1.37,26.13,4.73,37.96,10.32,18.97,8.96,34.6,12.35,55.21,6.54"/>
      <path class="cls-2" d="M.13,11.43C27.73,3.78,57.19.22,85.84,2.25c23.91,1.7,47.92,8.82,71.99,7.78,16.9-.73,32.68-7.91,49.46-9.39,14.12-1.24,27.37,3.68,40.5,8.22,17.63,6.1,33.17,8.37,51.6,4.11"/>
      <path class="cls-2" d="M.13,7.74C27.32,2.48,55.49.4,83.19,1.64c24.12,1.08,48.2,5.8,72.39,5.16,18.51-.49,36.58-5.42,55.05-6.38,13.18-.69,25.93,2.35,38.68,5.3,16.99,3.93,32.74,5.75,50.07,2.76"/>
      <path class="cls-2" d="M.13,4.05C27.11,1.26,54.36.4,81.48,1.01c23.84.54,47.67,2.91,71.53,2.59,20.29-.27,40.48-2.81,60.77-3.31,28.77-.71,56.75,6.86,85.61,3.96"/>
      <path class="cls-2" d="M.13.36C99.88-.2,199.64.96,299.38.36"/>
    </g>
  </g>
</svg>